# xmcd CD database file
#
# Track frame offsets:
#	150
#	55908
#	118602
#	163889
#
# Disc length: 3035 seconds
#
# Revision: 0
# Processed by: cddbd v1.5.1PL2 Copyright (c) Steve Scherf et al.
# Submitted via: CDex 1.60beta1-cs1
#
DISCID=310bd904
DTITLE=Llewellyn - Journey To Our Dreams
DYEAR=2005
DGENRE=New Age
TTITLE0=Breathing
TTITLE1=Flowing
TTITLE2=Journey
TTITLE3=Dream
EXTD=YEAR: 2005
EXTT0=
EXTT1=
EXTT2=
EXTT3=
PLAYORDER=
